<svg xmlns="http://www.w3.org/2000/svg" width="512" height="512" viewBox="0 0 512 512">
  <defs>
    <radialGradient id="bg" cx="50%" cy="40%" r="72%">
      <stop offset="0%" stop-color="#FFF3E2"/>
      <stop offset="100%" stop-color="#F7D9A4"/>
    </radialGradient>
    <linearGradient id="petalOuter" x1="0" y1="0" x2="0" y2="1">
      <stop offset="0%" stop-color="#F2A9B4"/>
      <stop offset="100%" stop-color="#D96C87"/>
    </linearGradient>
    <linearGradient id="petalInner" x1="0" y1="0" x2="0" y2="1">
      <stop offset="0%" stop-color="#FBD3DA"/>
      <stop offset="100%" stop-color="#EE93A5"/>
    </linearGradient>
    <radialGradient id="coin" cx="40%" cy="35%" r="75%">
      <stop offset="0%" stop-color="#FFE9A8"/>
      <stop offset="100%" stop-color="#D98A24"/>
    </radialGradient>
  </defs>

  <circle cx="256" cy="256" r="240" fill="url(#bg)"/>

  <!-- shower of gold coins -->
  <g>
    <circle cx="256" cy="118" r="30" fill="url(#coin)" stroke="#B36F14" stroke-width="4"/>
    <circle cx="188" cy="152" r="23" fill="url(#coin)" stroke="#B36F14" stroke-width="4"/>
    <circle cx="324" cy="152" r="23" fill="url(#coin)" stroke="#B36F14" stroke-width="4"/>
    <circle cx="140" cy="212" r="17" fill="url(#coin)" stroke="#B36F14" stroke-width="3"/>
    <circle cx="372" cy="212" r="17" fill="url(#coin)" stroke="#B36F14" stroke-width="3"/>
    <g fill="#8C5A0E">
      <circle cx="256" cy="118" r="7"/>
      <circle cx="188" cy="152" r="5"/>
      <circle cx="324" cy="152" r="5"/>
    </g>
  </g>

  <!-- lotus (same construction as ekadashi art, shifted down) -->
  <g transform="translate(0 46)">
    <g fill="url(#petalOuter)">
      <path d="M256 236 C 216 258, 152 262, 108 322 C 152 350 216 344 256 316 Z"/>
      <path d="M256 236 C 296 258, 360 262, 404 322 C 360 350 296 344 256 316 Z"/>
      <path d="M256 220 C 222 228, 174 216, 140 250 C 176 296 232 300 256 292 Z"/>
      <path d="M256 220 C 290 228, 338 216, 372 250 C 336 296 280 300 256 292 Z"/>
    </g>
    <g fill="url(#petalInner)">
      <path d="M256 176 C 226 204, 196 236, 200 286 C 232 296 252 280 256 262 Z"/>
      <path d="M256 176 C 286 204, 316 236, 312 286 C 280 296 260 280 256 262 Z"/>
      <path d="M256 156 C 240 196, 240 244, 256 282 C 272 244 272 196 256 156 Z"/>
    </g>
    <ellipse cx="256" cy="300" rx="58" ry="26" fill="#F2B33D"/>
    <g fill="#D98A24">
      <circle cx="232" cy="298" r="5"/>
      <circle cx="256" cy="302" r="5"/>
      <circle cx="280" cy="298" r="5"/>
    </g>
  </g>

  <!-- small diyas flanking -->
  <g>
    <path d="M96 402 L160 402 C 159 418, 144 428, 128 428 C 112 428 97 418 96 402 Z" fill="#8C2F1B"/>
    <path d="M128 374 C 134 384, 137 390, 137 396 a 9 9 0 1 1 -18 0 c 0 -6 3 -12 9 -22 Z" fill="#F59E2D"/>
    <path d="M352 402 L416 402 C 415 418, 400 428, 384 428 C 368 428 353 418 352 402 Z" fill="#8C2F1B"/>
    <path d="M384 374 C 390 384, 393 390, 393 396 a 9 9 0 1 1 -18 0 c 0 -6 3 -12 9 -22 Z" fill="#F59E2D"/>
  </g>
</svg>
